<svg width="83" height="47" viewBox="0 0 83 47" fill="none" xmlns="http://www.w3.org/2000/svg">
<path d="M50.432 0.199997H40.512C40.192 0.199997 40 0.391998 39.936 0.647999L37.824 23.368C37.824 23.944 36.992 24.072 36.8 23.496L29.44 0.584C29.376 0.327999 29.184 0.199997 28.928 0.199997H22.144C21.888 0.199997 21.696 0.327999 21.632 0.584L14.272 23.496C14.08 24.072 13.248 23.944 13.248 23.368L11.136 0.647999C11.072 0.391998 10.88 0.199997 10.56 0.199997H0.64C0.32 0.199997 0.064 0.455997 0.128 0.775997L5.696 44.552C5.76 44.872 5.952 45.064 6.272 45.064H17.792C18.048 45.064 18.24 44.872 18.304 44.68L24.96 22.472C25.088 21.96 25.792 21.96 25.984 22.472L32.768 44.68C32.896 44.872 33.088 45.064 33.344 45.064H44.8C45.056 45.064 45.312 44.872 45.376 44.552L50.944 0.775997C51.008 0.455997 50.752 0.199997 50.432 0.199997ZM82.0075 23.304C81.6235 22.024 81.1115 20.808 80.4075 19.656L80.0875 19.08C80.0235 18.952 79.8955 18.824 79.8315 18.696L79.6395 18.376C79.5755 18.248 79.4475 18.12 79.3195 17.928C79.1915 17.736 79.0635 17.544 78.9355 17.416L78.8075 17.288C78.6795 17.096 78.5515 16.968 78.4235 16.84L78.3595 16.712L78.1675 16.904L78.2955 16.712C78.1035 16.456 77.9115 16.264 77.7195 16.008L77.5915 15.88C77.4635 15.752 77.3355 15.624 77.1435 15.496V15.432C76.9515 15.304 76.7595 15.112 76.5675 14.92L76.4395 14.856C76.1835 14.6 75.9275 14.408 75.6715 14.216C75.6075 14.216 75.5435 14.152 75.4795 14.088C75.1595 13.832 74.9035 13.64 74.5835 13.448H74.5195C74.1995 13.256 73.7515 12.936 73.4315 12.808C73.3675 12.744 73.2395 12.68 73.1755 12.616L73.0475 12.872L73.1755 12.616H73.1115C72.9835 12.552 72.8555 12.488 72.6635 12.36H72.5995C72.2795 12.232 71.9595 12.04 71.7035 11.912H71.5755C71.3835 11.848 71.2555 11.784 70.9995 11.72C70.9355 11.656 70.8715 11.656 70.8075 11.592C70.6155 11.528 70.3595 11.464 70.1675 11.4H70.1035C69.8475 11.336 69.5915 11.208 69.3355 11.144L69.1435 11.08C68.6315 10.952 68.1195 10.888 67.6075 10.824L67.3515 10.76C66.8395 10.696 66.2635 10.632 65.7515 10.568H65.5595C65.2395 10.568 64.9835 10.568 64.7275 10.568C64.4715 10.568 64.2155 10.568 63.8955 10.568C63.8315 10.568 63.7675 10.568 63.7035 10.632H63.6395C63.4475 10.632 63.2555 10.632 63.0635 10.632H62.9995C62.9355 10.632 62.8715 10.696 62.8075 10.696C62.4875 10.696 62.2315 10.76 61.9755 10.76H61.9115C61.7195 10.824 61.3355 10.888 61.0795 10.952H60.9515C60.7595 11.016 60.5675 11.016 60.3755 11.08H60.3115C60.2475 11.144 60.1835 11.144 60.1195 11.144C59.8635 11.208 59.6075 11.272 59.3515 11.336C59.0955 11.464 58.8395 11.528 58.5835 11.592C58.5835 11.656 58.5195 11.656 58.4555 11.656L58.3915 11.72C58.1995 11.784 58.0075 11.848 57.8795 11.912H57.8155C57.7515 11.976 57.6875 11.976 57.6235 11.976C57.3675 12.104 57.1755 12.232 56.9195 12.296C56.6635 12.424 56.4715 12.552 56.2155 12.68C56.1515 12.68 56.0875 12.744 56.0235 12.744V12.808C55.8315 12.872 55.7035 13 55.5115 13.064L55.3195 13.192C55.0635 13.32 54.8715 13.448 54.6795 13.576C52.5035 15.048 50.6475 16.968 49.3035 19.144C49.1755 19.336 49.0475 19.592 48.9195 19.784L48.7915 20.104C48.7275 20.104 48.7275 20.168 48.6635 20.232C48.6635 20.296 48.5995 20.36 48.5995 20.424L48.5355 20.552C48.5355 20.616 48.4715 20.68 48.4715 20.68C48.3435 20.936 48.2155 21.192 48.1515 21.448C47.9595 21.832 47.7675 22.28 47.6395 22.792C47.1275 24.264 46.8075 25.864 46.7435 27.4C46.7435 27.72 46.7435 28.04 46.7435 28.36C46.7435 28.616 46.7435 28.936 46.7435 29.256C46.8075 30.152 46.8715 31.048 47.0635 31.88C47.1275 32.2 47.1915 32.52 47.2555 32.776C47.3835 33.096 47.4475 33.48 47.6395 33.864C47.8955 34.632 48.1515 35.4 48.5355 36.104C48.5355 36.168 48.5995 36.168 48.5995 36.232L48.6635 36.36C48.7275 36.552 48.8555 36.744 48.9195 36.872L48.9835 37C49.1115 37.192 49.1755 37.384 49.3035 37.512C50.6475 39.752 52.5035 41.608 54.6795 43.08C54.8715 43.208 55.0635 43.336 55.3195 43.464L55.5115 43.592C55.7035 43.72 55.8315 43.784 56.0235 43.848V43.912C56.0875 43.912 56.1515 43.976 56.2155 43.976C56.4715 44.104 56.6635 44.232 56.9195 44.36C57.1755 44.424 57.3675 44.552 57.6235 44.68C57.6875 44.68 57.7515 44.68 57.8155 44.744H57.8795C58.0075 44.808 58.1995 44.872 58.3915 44.936L58.4555 45C58.5195 45 58.5835 45 58.5835 45.064C58.8395 45.128 59.0955 45.192 59.3515 45.32C59.6075 45.384 59.8635 45.448 60.1195 45.512C60.1835 45.512 60.2475 45.512 60.3115 45.576H60.3755C60.5675 45.64 60.7595 45.64 60.9515 45.704L61.2075 45.768C61.3995 45.768 61.5915 45.832 61.8475 45.896H61.9755C62.2315 45.96 62.4875 45.96 62.8075 45.96C62.8715 46.024 62.9355 46.024 62.9995 46.024H63.0635C63.2555 46.024 63.4475 46.024 63.6395 46.088H63.7035C63.7675 46.088 63.8315 46.088 63.8955 46.088C64.2155 46.088 64.4715 46.088 64.7275 46.088C64.9835 46.088 65.2395 46.088 65.5595 46.088H65.7515C66.2635 46.024 66.8395 45.96 67.3515 45.896H67.5435C68.1195 45.768 68.6315 45.704 69.1435 45.576L69.3355 45.512C69.5915 45.448 69.8475 45.384 70.1035 45.256H70.1675C70.3595 45.192 70.6155 45.128 70.8075 45.064L71.0635 44.936C71.2555 44.872 71.3835 44.808 71.6395 44.744H71.7035C71.9595 44.616 72.2795 44.488 72.5995 44.296H72.6635C72.8555 44.168 72.9835 44.104 73.1115 44.04H73.1755C73.2395 43.976 73.3675 43.912 73.4315 43.912L73.4955 43.848C73.8795 43.656 74.1995 43.464 74.5195 43.208L74.6475 43.144C74.9035 42.952 75.2235 42.76 75.4795 42.568L75.6715 42.44C75.9275 42.248 76.1835 42.056 76.4395 41.864L76.2475 41.608L76.4395 41.8L76.6315 41.672C76.8235 41.544 76.9515 41.352 77.1435 41.224V41.16C77.3355 41.032 77.4635 40.904 77.5915 40.776L77.7195 40.648C77.9115 40.392 78.1035 40.2 78.3595 39.944L78.4235 39.816C78.5515 39.688 78.6795 39.56 78.8075 39.368L78.9355 39.24C78.9995 39.176 79.0635 39.112 79.1275 39.048L79.2555 38.856C79.4475 38.6 79.6395 38.344 79.8315 38.024C80.0235 37.768 80.1515 37.512 80.2795 37.256L80.4075 37C80.5995 36.744 80.8555 36.232 81.0475 35.784C81.1755 35.464 80.9835 35.08 80.6635 35.016L71.5755 33.416C71.3195 33.352 71.1275 33.48 70.9995 33.608C69.3995 35.72 67.0955 36.808 64.6635 36.808C61.7835 36.808 59.1595 35.208 57.6875 32.776C57.4955 32.392 57.7515 31.944 58.1355 31.944H81.8795C82.1995 31.944 82.3915 31.752 82.4555 31.496C82.6475 30.472 82.7115 29.32 82.7115 28.36C82.7115 26.632 82.5195 24.968 82.0075 23.304ZM71.5755 24.456H58.6475C58.3275 24.456 58.0715 24.136 58.1355 23.816C58.5835 21.32 61.7835 19.4 65.1115 19.4C68.8235 19.4 71.7035 21.32 72.1515 23.816C72.1515 24.136 71.8955 24.456 71.5755 24.456Z" fill="white"/>
</svg>
